<?xml version="1.0" encoding="UTF-8"?>
<svg viewBox="0 0 1024 1024" xmlns="http://www.w3.org/2000/svg" width="1024" height="1024"><defs><radialGradient id="v5-bg" cx="50%" cy="35%" r="85%"><stop offset="0%" stop-color="#1a1a26"/><stop offset="45%" stop-color="#0e0e18"/><stop offset="100%" stop-color="#06060c"/></radialGradient><radialGradient id="v5-bg-warm" cx="50%" cy="62%" r="55%"><stop offset="0%" stop-color="#f97316" stop-opacity="0.22"/><stop offset="55%" stop-color="#f97316" stop-opacity="0.05"/><stop offset="100%" stop-color="#f97316" stop-opacity="0"/></radialGradient><radialGradient id="v5-ball-base" cx="34%" cy="26%" r="92%"><stop offset="0%" stop-color="#ffd9b0"/><stop offset="6%" stop-color="#ffb077"/><stop offset="18%" stop-color="#fb8a3a"/><stop offset="38%" stop-color="#ee6a1c"/><stop offset="62%" stop-color="#c64c12"/><stop offset="86%" stop-color="#7d2a09"/><stop offset="100%" stop-color="#3a1304"/></radialGradient><radialGradient id="v5-ball-warm" cx="50%" cy="55%" r="65%"><stop offset="0%" stop-color="#ff7a1a" stop-opacity="0"/><stop offset="55%" stop-color="#d04812" stop-opacity="0.25"/><stop offset="100%" stop-color="#3a0c02" stop-opacity="0.55"/></radialGradient><radialGradient id="v5-ball-rim" cx="50%" cy="50%" r="50%"><stop offset="72%" stop-color="#000" stop-opacity="0"/><stop offset="88%" stop-color="#000" stop-opacity="0.35"/><stop offset="100%" stop-color="#000" stop-opacity="0.85"/></radialGradient><radialGradient id="v5-ball-spec1" cx="30%" cy="22%" r="42%"><stop offset="0%" stop-color="#ffffff" stop-opacity="0.55"/><stop offset="35%" stop-color="#ffe2c0" stop-opacity="0.18"/><stop offset="100%" stop-color="#ffffff" stop-opacity="0"/></radialGradient><radialGradient id="v5-ball-spec2" cx="28%" cy="20%" r="14%"><stop offset="0%" stop-color="#ffffff" stop-opacity="0.92"/><stop offset="55%" stop-color="#ffffff" stop-opacity="0.25"/><stop offset="100%" stop-color="#ffffff" stop-opacity="0"/></radialGradient><radialGradient id="v5-ball-rimlight" cx="78%" cy="74%" r="32%"><stop offset="0%" stop-color="#ffb070" stop-opacity="0"/><stop offset="55%" stop-color="#ffb070" stop-opacity="0.18"/><stop offset="92%" stop-color="#ff9550" stop-opacity="0.55"/><stop offset="100%" stop-color="#ff9550" stop-opacity="0"/></radialGradient><radialGradient id="v5-ball-bounce" cx="50%" cy="92%" r="35%"><stop offset="0%" stop-color="#ff5a14" stop-opacity="0.45"/><stop offset="100%" stop-color="#ff5a14" stop-opacity="0"/></radialGradient><linearGradient id="v5-seam-dark" x1="0%" y1="0%" x2="0%" y2="100%"><stop offset="0%" stop-color="#1a0604"/><stop offset="50%" stop-color="#2a0c06"/><stop offset="100%" stop-color="#0c0302"/></linearGradient><radialGradient id="v5-shadow" cx="50%" cy="50%" r="50%"><stop offset="0%" stop-color="#000" stop-opacity="0.85"/><stop offset="55%" stop-color="#000" stop-opacity="0.35"/><stop offset="100%" stop-color="#000" stop-opacity="0"/></radialGradient><radialGradient id="v5-glow" cx="50%" cy="50%" r="50%"><stop offset="0%" stop-color="#ff7a1a" stop-opacity="0.35"/><stop offset="60%" stop-color="#ff5a14" stop-opacity="0.08"/><stop offset="100%" stop-color="#ff5a14" stop-opacity="0"/></radialGradient><linearGradient id="v5-canvas-sheen" x1="0%" y1="0%" x2="0%" y2="100%"><stop offset="0%" stop-color="#ffffff" stop-opacity="0.10"/><stop offset="55%" stop-color="#ffffff" stop-opacity="0"/></linearGradient><filter id="v5-pebble" x="0%" y="0%" width="100%" height="100%"><feTurbulence type="fractalNoise" baseFrequency="2.4" numOctaves="2" seed="7"/><feColorMatrix values="0 0 0 0 0  0 0 0 0 0  0 0 0 0 0  0 0 0 0.55 0"/></filter><filter id="v5-pebble-light" x="0%" y="0%" width="100%" height="100%"><feTurbulence type="fractalNoise" baseFrequency="2.4" numOctaves="2" seed="9"/><feColorMatrix values="0 0 0 0 1  0 0 0 0 1  0 0 0 0 1  0 0 0 0.35 0"/></filter><filter id="v5-blur-sm" x="-20%" y="-20%" width="140%" height="140%"><feGaussianBlur stdDeviation="3"/></filter><linearGradient id="v5-hoop" x1="0%" y1="0%" x2="100%" y2="100%"><stop offset="0%" stop-color="#ffd166"/><stop offset="50%" stop-color="#fb923c"/><stop offset="100%" stop-color="#dc2626"/></linearGradient><linearGradient id="v5-board" x1="0%" y1="0%" x2="0%" y2="100%"><stop offset="0%" stop-color="#1a1a2a"/><stop offset="100%" stop-color="#0a0a14"/></linearGradient><clipPath id="v5-clip"><rect x="0" y="0" width="1024" height="1024" rx="230" ry="230"/></clipPath></defs><g clip-path="url(#v5-clip)"><rect width="1024" height="1024" fill="url(#v5-bg)"/><rect width="1024" height="1024" fill="url(#v5-bg-warm)"/><path d="M 240 440 Q 512 360 784 440" fill="none" stroke="url(#v5-hoop)" stroke-width="22" stroke-linecap="round" opacity="0.95"/><g><defs><clipPath id="v5-sphereClip-512-500-250"><circle cx="512" cy="500" r="250"/></clipPath></defs><ellipse cx="512" cy="755" rx="195" ry="32.5" fill="url(#v5-shadow)" opacity="0.85"/><circle cx="512" cy="512.5" r="330" fill="url(#v5-glow)"/><circle cx="512" cy="500" r="250" fill="url(#v5-ball-base)"/><circle cx="512" cy="500" r="250" fill="url(#v5-ball-warm)" style="mix-blend-mode: multiply;"/><circle cx="512" cy="500" r="250" fill="url(#v5-ball-bounce)" style="mix-blend-mode: screen;"/><g clip-path="url(#v5-sphereClip-512-500-250)" opacity="0.55" style="mix-blend-mode: overlay;"><rect x="262" y="250" width="500" height="500" filter="url(#v5-pebble)"/></g><g clip-path="url(#v5-sphereClip-512-500-250)" opacity="0.20" style="mix-blend-mode: screen;"><rect x="262" y="250" width="500" height="500" filter="url(#v5-pebble-light)"/></g><g clip-path="url(#v5-sphereClip-512-500-250)"><g fill="none" stroke-linecap="round"><g stroke="#1a0604" stroke-width="11" opacity="0.55" filter="url(#v5-blur-sm)"><path d="M 262 500 L 762 500"/><path d="M 512 250 L 512 750"/><path d="M 512 250 A 137.5 250 0 0 0 512 750"/><path d="M 512 250 A 137.5 250 0 0 1 512 750"/></g><g stroke="url(#v5-seam-dark)" stroke-width="7"><path d="M 262 500 L 762 500"/><path d="M 512 250 L 512 750"/><path d="M 512 250 A 137.5 250 0 0 0 512 750"/><path d="M 512 250 A 137.5 250 0 0 1 512 750"/></g><path d="M 268 497 L 756 497" fill="none" stroke="#ffb070" stroke-width="2" opacity="0.5"/></g></g><circle cx="512" cy="500" r="250" fill="url(#v5-ball-rim)"/><circle cx="512" cy="500" r="250" fill="url(#v5-ball-rimlight)"/><circle cx="512" cy="500" r="250" fill="url(#v5-ball-spec1)"/><circle cx="512" cy="500" r="250" fill="url(#v5-ball-spec2)"/></g><path d="M 240 460 Q 512 540 784 460" fill="none" stroke="#000" stroke-opacity="0.55" stroke-width="14" stroke-linecap="round"/><path d="M 240 460 Q 512 540 784 460" fill="none" stroke="url(#v5-hoop)" stroke-width="22" stroke-linecap="round"/><path d="M 260 462 Q 512 528 764 462" fill="none" stroke="#fff7ed" stroke-opacity="0.55" stroke-width="4" stroke-linecap="round"/><g stroke="rgba(255,255,255,0.32)" stroke-width="3" fill="none" stroke-linecap="round"><line x1="270" y1="475" x2="320" y2="800"/><line x1="335" y1="500" x2="370" y2="850"/><line x1="410" y1="520" x2="430" y2="880"/><line x1="490" y1="530" x2="495" y2="900"/><line x1="570" y1="528" x2="582" y2="892"/><line x1="650" y1="515" x2="640" y2="870"/><line x1="720" y1="495" x2="700" y2="838"/><line x1="755" y1="478" x2="730" y2="800"/><path d="M 320 600 Q 512 660 700 600"/><path d="M 350 720 Q 512 770 670 720"/><path d="M 400 840 Q 512 880 620 840"/></g><rect width="1024" height="512" fill="url(#v5-canvas-sheen)"/></g><rect x="2" y="2" width="1020" height="1020" rx="228" ry="228" fill="none" stroke="rgba(255,255,255,0.07)" stroke-width="2"/></svg>
